<?xml version="1.0" encoding="utf-8"?>
<!-- Generator: Adobe Illustrator 27.2.0, SVG Export Plug-In . SVG Version: 6.00 Build 0)  -->
<svg version="1.1" id="Calque_1" xmlns="http://www.w3.org/2000/svg" xmlns:xlink="http://www.w3.org/1999/xlink" x="0px" y="0px"
	 viewBox="0 0 438.7 442.2" style="enable-background:new 0 0 438.7 442.2;" xml:space="preserve">
<style type="text/css">
	.st0{fill:#F0F0F0;}
	.st1{fill:#E0E0E0;}
	.st2{fill:#27DEBF;}
	.st3{opacity:0.15;enable-background:new    ;}
	.st4{opacity:0.25;fill:#FFFFFF;enable-background:new    ;}
	.st5{opacity:0.4;fill:#FFFFFF;enable-background:new    ;}
	.st6{fill:#455A64;}
	.st7{fill:#263238;}
	.st8{fill:#9A4A4D;}
	.st9{fill:#E6E6E6;}
	.st10{opacity:0.1;enable-background:new    ;}
	.st11{opacity:5.000000e-02;enable-background:new    ;}
	.st12{fill:#FAFAFA;}
	.st13{opacity:0.3;fill:#FFFFFF;enable-background:new    ;}
	.st14{fill:#B16668;}
	.st15{fill:#37474F;}
	.st16{fill:#F5F5F5;}
</style>
<g id="Floor">
	<path id="Floor-2" class="st0" d="M64.2,408.6c85.7,44.8,224.5,44.8,310.2,0s85.7-117.3,0-162.1s-224.6-44.8-310.2,0
		S-21.4,363.9,64.2,408.6z"/>
</g>
<g id="Shadow">
	<ellipse class="st1" cx="366.4" cy="340.2" rx="48" ry="27.7"/>
</g>
<g id="Pen_tool">
	<path class="st2" d="M121.8,115.5c-4.7,2.7-8.5,10-8.5,16.3c0,5.6,3,8.5,7,7.1v118.7L77,166.8c-0.7-1.8-0.7-3.7-0.1-5.5
		c10.9-25.3,19-53.7,21.7-82.9c0.3-1.9,1.3-3.5,2.9-4.6L142,50.5c0.8-0.6,1.9-0.5,2.5,0.3c0.3,0.3,0.4,0.8,0.4,1.2
		c2.7,25.3,10.4,44,20.9,56.6c1.1,1.5,1.5,3.4,1.1,5.2c-6.1,19.8-41.1,133.7-43.7,142V137.2c4-3.2,7-9.7,7-15.2
		C130.3,115.7,126.5,112.8,121.8,115.5z"/>
	<path class="st2" d="M186.8,125.3l-43.7,142l-3-1.7v3.5l-19.8-11.4L77,166.8c-0.7-1.8-0.7-3.7-0.1-5.5c10.9-25.3,19-53.7,21.7-82.9
		c0.3-1.9,1.3-3.5,2.9-4.6L142,50.5c1.7-0.8,3.6-0.8,5.3,0l14.5,8.4c1.6,1,2.6,2.7,2.9,4.5c2.7,25.3,10.4,44,20.9,56.6
		C186.8,121.5,187.2,123.4,186.8,125.3z"/>
	<path class="st3" d="M150.1,133.4c0,5.6-3,12-7,15.2v118.7l-3-1.7V150.4c-4,1.4-7-1.5-7-7.1c0-6.3,3.8-13.6,8.5-16.3
		S150.1,127.1,150.1,133.4z"/>
	<path class="st2" d="M186.8,125.3l-43.7,142V148.6c4-3.2,7-9.6,7-15.2c0-6.3-3.8-9.2-8.5-6.4s-8.5,10-8.5,16.3c0,5.6,3,8.5,7,7.1
		V269l-43.2-90.7c-0.7-1.8-0.8-3.7-0.1-5.5c10.9-25.3,19-53.7,21.7-83c0.3-1.9,1.3-3.5,2.9-4.6l40.4-23.3c0.8-0.6,1.9-0.5,2.6,0.3
		c0.3,0.3,0.4,0.8,0.4,1.2c2.7,25.3,10.4,44,20.9,56.6C186.8,121.5,187.2,123.4,186.8,125.3z"/>
	<path class="st4" d="M119.3,87.5c-0.4,0.7-0.7,1.5-0.8,2.3c-2.7,29.2-10.8,57.7-21.8,83c-0.4,1-0.5,2-0.5,3l-19.8-11.4
		c-0.1-1,0.1-2.1,0.5-3.1c10.9-25.3,19-53.7,21.7-82.9c0.1-0.8,0.4-1.7,0.8-2.4L119.3,87.5z"/>
	<path class="st3" d="M164.6,63c-0.2-1-1.1-1.6-2-1.5c-0.3,0-0.6,0.2-0.8,0.4l-40.4,23.3c-0.9,0.5-1.6,1.3-2.1,2.2L99.5,76
		c0.5-0.9,1.2-1.7,2.1-2.2L142,50.5c1.7-0.8,3.6-0.8,5.3,0l14.5,8.4C163.2,59.8,164.3,61.3,164.6,63z"/>
	<path class="st2" d="M89.8,37.6l64-37c1.7-0.8,3.6-0.8,5.3,0L173.6,9c1.6,1,2.5,2.7,2.6,4.6v28.2c-0.1,1.9-1.1,3.6-2.6,4.6l-64,37
		c-1.7,0.8-3.6,0.8-5.3,0l-14.5-8.4c-1.6-1-2.5-2.7-2.6-4.6V42.1C87.3,40.3,88.2,38.6,89.8,37.6z"/>
	<path class="st5" d="M176.2,13.2c-0.2-1.4-1.3-1.9-2.6-1.1l-64,36.9c-0.8,0.5-1.4,1.2-1.9,2L87.9,39.6c0.4-0.8,1.1-1.5,1.9-2l64-37
		c1.7-0.8,3.6-0.8,5.3,0L173.6,9C175,9.9,176,11.5,176.2,13.2z"/>
	<path class="st3" d="M109.2,83.5L109.2,83.5h-0.2c-0.1,0-0.1,0.1-0.2,0.1c-0.1,0-0.2,0.1-0.3,0.1l-0.3,0.1H108l-0.4,0.1
		c-1.1,0.1-2.2-0.1-3.2-0.6l-14.5-8.3c-1.6-1-2.5-2.7-2.6-4.6V42.1c0-0.9,0.3-1.8,0.8-2.6L107.7,51c-0.5,0.8-0.8,1.7-0.8,2.6v28.2
		c0,1.2,0.6,1.9,1.5,1.9c0.1,0,0.3,0,0.4,0L109.2,83.5z"/>
	<path class="st3" d="M140.1,269l-19.8-11.4l-43.2-90.7c-0.3-0.8-0.5-1.6-0.6-2.5l19.8,11.4c0,0.9,0.2,1.7,0.6,2.5L140.1,269z"/>
	<path class="st3" d="M143.1,148.6v118.7l-3-1.7V150.4c-4,1.4-7-1.5-7-7.1c0-0.1,0-0.3,0-0.4L143.1,148.6z"/>
	<path class="st6" d="M234.6,114.5c0-3.2-2.3-4.5-5.1-2.9c-3,1.9-4.9,5.2-5.1,8.8c0,2.6,1.5,3.9,3.5,3.5
		c-2.8,59.6-44.6,129.9-95.5,159.2c-25.3,14.6-49,17-66.8,6.8c-16.8-9.7-26.4-29.6-27.4-56.4c2.1-2,3.4-4.7,3.6-7.6
		c0-3.2-2.3-4.5-5-2.9c-3,1.9-4.9,5.2-5.1,8.8c0,2.8,1.7,4.1,3.9,3.4c1.4,27,11.4,47.1,28.7,57.1c7.8,4.5,16.7,6.7,25.8,6.6
		c13.4,0,28.3-4.5,43.7-13.4c52.1-30.1,94.7-102.3,96.9-163.1C233,120.3,234.4,117.5,234.6,114.5z"/>
	<path class="st6" d="M229.5,223.1c-2.5,1.6-4.2,4.2-4.9,7.1l-183,105.7c-0.7-2-2.5-2.6-4.8-1.3c-3,1.9-4.9,5.2-5.1,8.8
		c0,3.2,2.3,4.5,5.1,2.9c2.6-1.7,4.3-4.3,4.9-7.3l182.9-105.6c0.6,2.1,2.5,2.8,4.9,1.5c3-1.9,4.9-5.2,5.1-8.8
		C234.6,222.7,232.3,221.4,229.5,223.1z"/>
	<path class="st6" d="M43.9,228.6c0,4-3.2,7.2-7.2,7.2s-7.2-3.2-7.2-7.2c0-4,3.2-7.2,7.2-7.2c0,0,0,0,0,0
		C40.7,221.4,43.9,224.7,43.9,228.6z"/>
	<circle class="st6" cx="36.5" cy="340.2" r="7.2"/>
	<path class="st6" d="M237.1,229.1c0,4-3.2,7.2-7.2,7.2s-7.2-3.2-7.2-7.2c0-4,3.2-7.2,7.2-7.2C233.9,221.9,237.1,225.1,237.1,229.1
		C237.1,229.1,237.1,229.1,237.1,229.1z"/>
	<path class="st6" d="M236.4,117.3c0,4-3.2,7.2-7.2,7.2c-4,0-7.2-3.2-7.2-7.2c0-4,3.2-7.2,7.2-7.2c0,0,0,0,0,0
		C233.2,110.1,236.4,113.3,236.4,117.3z"/>
</g>
<g id="Character">
	<g id="Character-2">
		<path class="st7" d="M277.5,351.4c-1.5,3.3-6.9,4-10.1,4.1c-4.8,0.2-9.2-2-13.5-3.9c-3-1.4-5.9-2.9-8.9-4.4s-5.9-3.1-9.1-3.9
			c-3.8-0.9-10.6-1.3-11.9,3.6c-1.4,5.3,5.8,9.7,9.2,12.2s8.1,5.3,9.7,9.3c2,4.9-4.6,6.4-8.1,6.6c-9.9,0.5-19.7-2.7-28.9-6.3
			c-13.1-5.1-26.2-10.7-39.9-14c-11.5-2.8-29.3-5.5-36,7.2c-0.1,0.2,0.3,0.7,0.5,0.4c7.2-11.8,23.6-9.4,35-6.6
			c13.9,3.4,27,9,40.3,14.2c8.9,3.4,18.2,6.4,27.8,6.2c4.4-0.1,13.2-1.9,10.5-8.3c-1.4-3.3-4.8-5.8-7.6-7.9c-3.4-2.6-7.2-5-9.9-8.4
			c-1.7-2.2-2.2-5.3,0.7-6.9c2.5-1.3,5.9-0.9,8.5-0.2c4,1,7.8,3.3,11.4,5.1c3.4,1.7,6.8,3.3,10.3,4.8c4.1,1.7,8.1,2.6,12.5,1.9
			c2.9-0.5,7.2-1.5,8.4-4.6C278.8,351.2,277.8,350.8,277.5,351.4L277.5,351.4z"/>
		<path class="st8" d="M347.3,150.2c-5.1,6.1-13.6,14.4-18.4,20.4c-2.6,3.1-3.9,7.1-3.9,11.1c0,3,0.9,5.5,3.8,4.2
			c2.1-0.9,3.5-2,6.5-5.1c2.8-2.7,16.2-15.3,16.2-15.3s2.5-15.5,6.7-16.7s7.7-7.9,7.7-7.9C359.2,140.2,353.8,142.5,347.3,150.2z"/>
		<path class="st9" d="M273.7,317.7c0,0,0-0.1,0-0.1l62.9-233.4l0,0v-0.1c0-0.1,0-0.1,0.1-0.2c0.1-0.3,0.3-0.7,0.5-0.9
			c0.2-0.3,0.4-0.6,0.7-0.9c1.1-1,2.3-1.7,3.8-2c5.6-1.5,13.5,0.6,17.5,4.7c1.4,1.2,2.3,3,2.4,4.8c0,0.4,0,0.8-0.2,1.2l-62.3,231.1
			l-0.7,2.4l0,0c-0.5,1.8-2.2,3.3-5,4c-5.6,1.5-13.5-0.6-17.6-4.7C273.9,321.8,273.2,319.6,273.7,317.7z"/>
		<path class="st6" d="M275.8,351L275.8,351l1.6-6.3l0,0c0.1-0.4,0.4-0.7,0.8-0.7c1-0.2,2.1,0.1,2.9,0.8c0.3,0.2,0.4,0.6,0.4,1l0,0
			l-1.6,6.3l0,0c-0.1,0.3-0.3,0.7-0.5,0.9c-0.8,0.8-2.2,0.8-3,0C275.9,352.5,275.6,351.7,275.8,351L275.8,351z"/>
		<path class="st7" d="M275.8,351.4L275.8,351.4c0-0.1,0-0.3,0-0.4s0,0,0,0c0.5,1.3,3,2.1,4.1,1.2c0,0,0,0.1,0,0.1v0.1
			c-0.1,0.2-0.2,0.4-0.4,0.6c-0.8,0.8-2.2,0.8-3,0C276,352.6,275.7,352,275.8,351.4z"/>
		<path class="st1" d="M275.8,339.5c2.7,2.4,6.4,3.5,10,2.7c1-0.2,1.9-0.8,2.5-1.6l9.3-14.4c-1.1,1.2-2.5,2-4.1,2.4
			c-5.6,1.5-13.5-0.6-17.6-4.7c-1.2-1.1-2.1-2.6-2.4-4.2l0.8,17.1c0,0.1,0,0.2,0,0.3C274.5,338,275,338.9,275.8,339.5z"/>
		<path class="st10" d="M276.4,332c3.4,3,8,4.3,12.4,3.4c2-0.5,3.2-1.6,3.5-2.9s-0.1-2.8-1.6-4.3c-3.4-3.1-8-4.3-12.4-3.4
			c-2,0.5-3.2,1.6-3.5,2.9S274.9,330.5,276.4,332z"/>
		<path class="st1" d="M275.8,339.5c2.7,2.4,6.4,3.5,10,2.7c1-0.2,1.9-0.8,2.5-1.6l9.3-14.4c-1.1,1.2-2.5,2-4.1,2.4
			c-5.6,1.5-13.5-0.6-17.6-4.7c-1.2-1.1-2.1-2.6-2.4-4.2l0.8,17.1c0,0.1,0,0.2,0,0.3C274.5,338,275,338.9,275.8,339.5z"/>
		<path class="st2" d="M275.4,344.5L275.4,344.5l-0.7-15.6c0-0.1,0-0.3,0-0.4c0-1.6,1.3-3,3.6-3.7c4.4-0.9,9,0.3,12.4,3.4
			c1.7,1.7,2.1,3.5,1.4,4.9l0,0.1l-0.2,0.4l-8.6,13.2l0,0c-0.3,0.5-0.9,0.8-1.4,0.9c-2,0.4-4.1-0.2-5.6-1.5
			C275.8,345.7,275.5,345.1,275.4,344.5z"/>
		<path class="st10" d="M275.4,344.5L275.4,344.5l-0.7-15.6c0-0.1,0-0.3,0-0.4c0-1.6,1.3-3,3.6-3.7c4.4-0.9,9,0.3,12.4,3.4
			c1.7,1.7,2.1,3.5,1.4,4.9l0,0.1l-0.2,0.4l-8.6,13.2l0,0c-0.3,0.5-0.9,0.8-1.4,0.9c-2,0.4-4.1-0.2-5.6-1.5
			C275.8,345.7,275.5,345.1,275.4,344.5z"/>
		<path class="st2" d="M276.4,332c3.4,3,8,4.3,12.4,3.4c2-0.5,3.2-1.6,3.5-2.9s-0.1-2.8-1.6-4.3c-3.4-3.1-8-4.3-12.4-3.4
			c-2,0.5-3.2,1.6-3.5,2.9S274.9,330.5,276.4,332z"/>
		<path class="st2" d="M276.4,332c3.4,3,8,4.3,12.4,3.4c2-0.5,3.2-1.6,3.5-2.9s-0.1-2.8-1.6-4.3c-3.4-3.1-8-4.3-12.4-3.4
			c-2,0.5-3.2,1.6-3.5,2.9S274.9,330.5,276.4,332z"/>
		<path class="st11" d="M274.8,327.7c0.4-1.3,1.4-2.2,2.7-2.6c4,2.9,9,4.2,13.9,3.8c0.9,1,1.2,2.3,0.9,3.6c-0.3,1.3-1.5,2.3-3.5,2.9
			c-4.4,0.9-9.1-0.3-12.4-3.3C274.9,330.5,274.4,329,274.8,327.7z"/>
		<path class="st2" d="M276.2,346.1c1.5,1.4,3.6,2,5.6,1.5c0.6-0.1,1.1-0.4,1.4-0.9l0,0l4.1-6.4c-0.6,0.6-1.3,1-2.1,1.2
			c-3.2,0.7-6.6-0.2-9-2.4c-0.6-0.6-1.1-1.3-1.2-2.2l0.3,7.6l0,0C275.4,345.1,275.7,345.7,276.2,346.1z"/>
		<path class="st12" d="M337.7,112.8c0.3-0.8,1-1.3,1.8-1.4c2.2-0.5,4.5,0.2,6.2,1.7c0.6,0.5,0.9,1.3,0.8,2.2l0,0L336.2,153
			c0-0.7-0.3-1.4-0.8-1.9c-1.7-1.5-4-2.2-6.2-1.7c-0.7,0.1-1.4,0.6-1.7,1.3L337.7,112.8z"/>
		<path class="st1" d="M338.5,114.9c1.7,1.5,4,2.1,6.2,1.7c0.8-0.1,1.5-0.7,1.8-1.4c0.2-0.8-0.1-1.6-0.8-2.2c-1.7-1.5-4-2.1-6.2-1.7
			c-1.1,0.1-1.9,1.1-1.8,2.2C337.7,114.1,338,114.6,338.5,114.9L338.5,114.9z"/>
		<path class="st2" d="M334.9,95.9L334.9,95.9v-0.1c0,0,0-0.1,0-0.2l3-10.9l0.1-0.3v-0.1l0,0c0.5-1.5,2-2.8,4.4-3.4
			c5-1.3,12.1,0.6,15.8,4.3c1.9,1.9,2.5,3.8,2,5.5l0,0l-3,11.1v0.1v0.1l0,0c-0.5,1.6-2,2.9-4.5,3.6c-5,1.3-12.1-0.6-15.8-4.3
			C335.2,99.4,334.5,97.5,334.9,95.9z"/>
		<path class="st11" d="M334.9,95.9L334.9,95.9v-0.1c0,0,0-0.1,0-0.2l3-10.9l0.1-0.3v-0.1l0,0c0.5-1.5,2-2.8,4.4-3.4
			c5-1.3,12.1,0.6,15.8,4.3c1.9,1.9,2.5,3.8,2,5.5l0,0l-3,11.1v0.1v0.1l0,0c-0.5,1.6-2,2.9-4.5,3.6c-5,1.3-12.1-0.6-15.8-4.3
			C335.2,99.4,334.5,97.5,334.9,95.9z"/>
		<path class="st6" d="M279.3,329l4.3-15.8L327.2,151c0,0,0,0,0-0.1l0.1-0.3c0.3-0.7,1-1.2,1.7-1.3c2.2-0.5,4.5,0.2,6.2,1.7
			c0.6,0.5,0.9,1.2,0.8,1.9l0,0l-0.1,0.4l-43.7,162.2l-4.3,15.8c-0.3,0.8-1,1.3-1.8,1.4c-1.6,0.3-3.3,0.1-4.7-0.6
			c-0.2-0.1-0.4-0.2-0.6-0.3c-0.3-0.2-0.6-0.4-0.9-0.7C279.4,330.6,279.1,329.8,279.3,329z"/>
		<path class="st7" d="M328.1,152.9c1.7,1.5,4,2.1,6.2,1.7c0.8-0.1,1.5-0.7,1.8-1.4c0.2-0.8-0.1-1.6-0.8-2.1c-1.7-1.5-4-2.1-6.2-1.7
			c-0.8,0.1-1.5,0.7-1.8,1.4C327.1,151.6,327.4,152.4,328.1,152.9z"/>
		<path class="st7" d="M279.3,329l0.6-2.4c2.7,1.4,5.7,2.2,8.8,2.4l-0.6,2.4c-0.3,0.8-1,1.3-1.8,1.4c-1.6,0.3-3.3,0.1-4.7-0.6
			c-0.5-0.2-1-0.6-1.5-1C279.4,330.7,279.1,329.8,279.3,329z"/>
		<path class="st1" d="M338.9,90.3c4.1,4.1,12,6.2,17.6,4.7c2.8-0.8,4.5-2.2,5-4s-0.1-4-2.2-6.1c-4.1-4.1-11.9-6.2-17.5-4.8
			c-2.8,0.8-4.5,2.2-5,4.1S336.9,88.3,338.9,90.3z"/>
		<path class="st2" d="M339.3,89.1c4.1,4.1,12,6.2,17.6,4.7c2.8-0.8,4.5-2.2,5-4v-0.1l0.7-2.4c0,0,0-0.1,0-0.1c0-0.1,0-0.2,0.1-0.4
			c0-0.2,0-0.4,0-0.5c0-0.1,0-0.2,0-0.3c0,0,0,0,0-0.1c0-0.1,0-0.2,0-0.3c-0.1-0.5-0.2-1-0.4-1.5c-0.1-0.1-0.1-0.3-0.2-0.4
			c0-0.1-0.1-0.1-0.1-0.2c-0.1-0.1-0.1-0.2-0.2-0.4c-0.4-0.6-0.9-1.2-1.4-1.8c-4.1-4.1-11.9-6.2-17.5-4.8c-1.4,0.3-2.7,1-3.8,2l0,0
			c-0.1,0.1-0.3,0.3-0.4,0.4l-0.3,0.4c-0.1,0.1-0.1,0.2-0.2,0.3l-0.1,0.2c0,0.1-0.1,0.2-0.1,0.4v0.1c0,0.1-0.1,0.2-0.1,0.4l-0.6,2.1
			c0,0.1-0.1,0.2-0.1,0.3C336.5,84.9,337.2,87.1,339.3,89.1z"/>
		<path class="st13" d="M340,86.7c4.1,4.1,12,6.2,17.6,4.7c2.8-0.8,4.5-2.2,5-4s-0.1-4-2.2-6.1c-4.1-4.1-11.9-6.2-17.5-4.8
			c-2.8,0.8-4.5,2.2-5,4.1S337.9,84.6,340,86.7z"/>
		<path class="st7" d="M371.7,135.3L371.7,135.3c11.1,0,20.1-9,20.1-20.1c0,0,0,0,0,0v-1.1c0-9.4-7.6-17-17-17h-6.1
			c-9.4,0-17,7.6-17,17v1.1C351.6,126.3,360.6,135.3,371.7,135.3z"/>
		<path class="st7" d="M399.9,137.3L399.9,137.3c-5,0-9.1-4.1-9.1-9.1v-18.1l0,0c5,0,9.1,4.1,9.1,9.1V137.3z"/>
		<path class="st7" d="M351,334c-2.3,2.5-4.9,4.7-7.7,6.7c-0.4,0.3-0.8,0.7-1.1,1.1c-0.4,0.8-0.9,2.6,2.5,3.8
			c3.5,1.2,7.4,0.9,10.6-1c2.8-1.8,2.9-5.4,5.6-7.5c2-1.5,4.4-1.9,6-4c1.1-1.4,0.8-3.3,0.2-5.6c-0.6-2.5-0.9-4.5-1.8-4.3l0.1,1.2
			c-1,1.7-6.5,2.2-8.9,1C356.7,325.4,352.5,332.3,351,334z"/>
		<path class="st14" d="M348.6,336.3L348.6,336.3c0.8-0.8,1.6-1.5,2.4-2.4c1.6-2.1,3.1-4.3,4.4-6.5c1-1.4,1.7-3,1.9-4.8
			c0-2.2-0.2-6.2-0.2-6.2l8-0.5l0.4,8.4l0,0c0.2,1.9-1.4,3.6-4.2,6s-6.4,8-8.9,9.4s-4.3,1.4-5.4,0.6S345.9,339.1,348.6,336.3z"/>
		<path class="st7" d="M377.8,342c-2.3,2.5-4.9,4.7-7.7,6.7c-0.4,0.3-0.8,0.7-1.1,1.1c-0.4,0.8-0.9,2.6,2.5,3.8
			c3.5,1.2,7.4,0.9,10.6-1c2.8-1.8,2.9-5.4,5.6-7.5c2-1.5,4.4-1.9,6-4c1.1-1.4,0.8-3.3,0.2-5.6c-0.6-2.5-0.9-4.5-1.8-4.3l0.1,1.2
			c-1,1.7-6.5,2.2-8.9,1C383.5,333.4,379.3,340.3,377.8,342z"/>
		<path class="st14" d="M375.4,344.4L375.4,344.4c0.8-0.8,1.6-1.5,2.4-2.4c1.6-2.1,3.1-4.3,4.4-6.5c1-1.4,1.6-3.1,1.9-4.9
			c0.1-2,0-6,0-6h8l0.2,7.8l0,0c0.2,1.9-1.4,3.6-4.2,6s-6.4,8-8.9,9.4s-4.3,1.4-5.4,0.6S372.7,347.1,375.4,344.4z"/>
		<path class="st15" d="M392.2,194.5c7,15.3-1,73.3-1,73.3c0.2,2.5,2.4,6.3,2.7,13.9c0.3,9.7-1.4,45.6-1.4,45.6
			c-2.9,1.5-6.3,1.6-9.2,0.2c0,0-8.3-48.8-9.9-61.6c-1.4-11.2-4.1-37.5-4.1-37.5l-5.6,37.5c0,0,2.9,6.2,3,11.9
			c0.2,7.6-0.9,42.8-0.9,42.8s-3.4,1.2-9.3,0.3c0,0-8.4-47.6-9.2-56.7c-0.5-5.4,3.6-71.9,3.6-71.9L392.2,194.5z"/>
		<path class="st7" d="M369.4,228.4l-2.3-12.5c0,0-9.6-2-14-6.1c0,0,4.6,5.7,11.4,7.6l2.6,10.9l-2.5,32.7L369.4,228.4z"/>
		<path class="st16" d="M378.6,141.3L378.6,141.3c6.1,0.9,9.4,2.2,11.4,8c1.3,3.8,0.9,9.3-0.4,13.1l-5.4,15.7
			c3.3,5.2,5.9,10.7,8,16.4c-15.7,8.8-36.6,4.1-41.3-2.3c-0.2-1.4,1.1-7.9,0.7-14.9c-0.4-7.4-1.6-15.9-0.4-20.5
			c2.2-8.5,8.1-14.1,14.8-15.9L378.6,141.3z"/>
		<path class="st14" d="M358.2,105.2c-2.1,1.2-4.8,6.6-4.5,17.8c0.2,9.5,3.3,11.8,4.8,12.5s4.5,0.3,7.4-0.2v5.7c0,0-4,4.6-3.8,7.2
			s5.8,3.2,9.5,0.7c2.4-1.7,4.5-3.9,6.1-6.4v-13.8c0,0,2,2.6,5.1,0.5s3.3-7.4,1.5-9.3s-5.9-1.3-6.6,1.3c0,0-4.6,0.2-10.8-3.2
			C362.3,115.4,359,110.6,358.2,105.2z"/>
		<path class="st7" d="M364.3,120.6c-0.1,0.7,0.4,1.2,1.1,1.3c0,0,0,0,0,0c0.7,0.1,1.3-0.4,1.4-1.1s-0.4-1.3-1.1-1.4
			C365,119.3,364.4,119.8,364.3,120.6C364.3,120.5,364.3,120.6,364.3,120.6z"/>
		<path class="st8" d="M364,128.6l-2.8,0.9c0.2,0.8,1,1.2,1.7,1c0,0,0,0,0.1,0C363.8,130.2,364.2,129.4,364,128.6z"/>
		<path class="st7" d="M354.5,116.9l2.4-1.7c-0.4-0.7-1.3-0.9-1.9-0.5c0,0,0,0-0.1,0C354.3,115.3,354.1,116.2,354.5,116.9z"/>
		<path class="st7" d="M355.1,119.7c0,0.7,0.5,1.2,1.1,1.3c0,0,0,0,0,0c0.7,0,1.2-0.5,1.2-1.2c0-0.7-0.5-1.2-1.1-1.2
			S355.1,119.1,355.1,119.7L355.1,119.7z"/>
		<polygon class="st8" points="360.7,119 360.5,126.2 356.7,125 		"/>
		<path class="st8" d="M366,135.2c3-0.4,9.3-2.2,10.3-4.7c-0.4,1.3-1.2,2.4-2.2,3.2c-1.9,1.6-8.1,3.4-8.1,3.4L366,135.2z"/>
		<path class="st14" d="M317.7,187.5c1.9,0.7,3.7,0.8,6.3,2c1.7,1,3.6,1.5,5.5,1.6c2.5,0.1,9.5-2.9,15.6-5.7
			c7.2-3.4,15-9.5,17.9-12.8c6-6.8,11.2-15.3,13.8-19.9c2.2-3.8,4.4-9.2,7.9-9.9c6,0.6,8.5,11.2,4.6,17.7s-10.9,15-18.3,22.2
			c-3.6,3.5-10.2,7.3-19.6,11.3c-6.2,2.7-12.6,4.9-19.1,6.6c-1.9,0.5-3.2,1.2-6.8,2.4c-1.4,0.6-3,0.9-4.5,1.1
			c-1.9,0.1-3.9-0.1-5.7-0.6c-2.4-0.6-4.5-1.8-6.2-3.5c-1-0.9-1.7-2.1-2.1-3.4c-0.4-1.3-0.4-2.7,0.1-3.9c0.1-0.3,0.2-0.5,0.5-0.7
			c0.4-0.2,0.9-0.3,1.4-0.2c2.7,0.4,5.6,1.2,8.3,1.3c2.3,0.1,3.9-0.2,3.6-0.5s-1.6-0.3-3.4-1.3s-2.7-2.9-2.1-3.8
			S315.9,186.8,317.7,187.5z"/>
		<path class="st14" d="M317.6,162.3c0,0,2.5-2,7.2-1.2c2.3,0.4,1.4,9.1-6,11.5c-4.8,1.6-5.8,0.8-7.3,4.7c0,0-2.9-0.6-2.2-5
			c0.8-4.6,2.8-8.9,5.9-12.3c2.1-2.5,2.3-4.6,3.3-3.9s0.5,2.9,0.5,2.9L317.6,162.3z"/>
	</g>
</g>
</svg>
